<svg width="23" height="22" viewBox="0 0 23 22" fill="none" xmlns="http://www.w3.org/2000/svg">
<path d="M6.80685 15.8748C6.90354 15.9415 7.01361 15.9901 7.13076 16.0177C7.24791 16.0453 7.36984 16.0514 7.48958 16.0357C7.60932 16.0201 7.72451 15.9829 7.82857 15.9263C7.93262 15.8697 8.0235 15.7948 8.096 15.7059C8.65302 15.0243 9.37531 14.471 10.2057 14.0899C11.036 13.7089 11.9516 13.5105 12.88 13.5105C13.8084 13.5105 14.724 13.7089 15.5543 14.0899C16.3847 14.471 17.107 15.0243 17.664 15.7059C17.7365 15.7947 17.8273 15.8694 17.9313 15.9259C18.0352 15.9824 18.1503 16.0195 18.2699 16.0352C18.3895 16.0509 18.5113 16.0448 18.6283 16.0173C18.7454 15.9898 18.8553 15.9414 18.952 15.8748C19.0487 15.8083 19.1301 15.7249 19.1916 15.6295C19.2532 15.5341 19.2937 15.4285 19.3108 15.3187C19.3278 15.2089 19.3212 15.0972 19.2912 14.9897C19.2612 14.8823 19.2085 14.7814 19.136 14.6927C18.3214 13.6902 17.235 12.9009 15.985 12.4033C16.67 11.8292 17.15 11.0785 17.3619 10.2496C17.5737 9.42072 17.5076 8.55241 17.1722 7.75863C16.8368 6.96485 16.2477 6.28269 15.4824 5.80167C14.717 5.32065 13.8111 5.06325 12.8835 5.06325C11.9558 5.06325 11.0499 5.32065 10.2845 5.80167C9.51916 6.28269 8.93012 6.96485 8.5947 7.75863C8.25929 8.55241 8.19318 9.42072 8.40504 10.2496C8.61691 11.0785 9.09686 11.8292 9.7819 12.4033C8.52936 12.9 7.44055 13.6893 6.624 14.6927C6.47748 14.8717 6.41443 15.0968 6.44872 15.3185C6.48301 15.5402 6.61183 15.7403 6.80685 15.8748ZM10.12 9.28846C10.12 8.78744 10.2819 8.29767 10.5851 7.88108C10.8884 7.4645 11.3195 7.13981 11.8238 6.94807C12.3281 6.75634 12.8831 6.70617 13.4185 6.80392C13.9538 6.90166 14.4456 7.14293 14.8316 7.49721C15.2176 7.85148 15.4805 8.30286 15.587 8.79426C15.6935 9.28565 15.6388 9.795 15.4299 10.2579C15.221 10.7208 14.8673 11.1164 14.4134 11.3948C13.9595 11.6731 13.4259 11.8217 12.88 11.8217C12.148 11.8217 11.446 11.5548 10.9284 11.0797C10.4108 10.6046 10.12 9.96031 10.12 9.28846ZM21.16 0H4.6C4.112 0 3.64399 0.177928 3.29892 0.494641C2.95386 0.811355 2.76 1.24091 2.76 1.68881V4.22203H0.92C0.676001 4.22203 0.441995 4.31099 0.269462 4.46935C0.0969283 4.62771 0 4.84248 0 5.06643C0 5.29038 0.0969283 5.50516 0.269462 5.66352C0.441995 5.82188 0.676001 5.91084 0.92 5.91084H2.76V10.1329H0.92C0.676001 10.1329 0.441995 10.2218 0.269462 10.3802C0.0969283 10.5385 0 10.7533 0 10.9773C0 11.2012 0.0969283 11.416 0.269462 11.5744C0.441995 11.7327 0.676001 11.8217 0.92 11.8217H2.76V16.0437H0.92C0.676001 16.0437 0.441995 16.1327 0.269462 16.291C0.0969283 16.4494 0 16.6642 0 16.8881C0 17.1121 0.0969283 17.3268 0.269462 17.4852C0.441995 17.6436 0.676001 17.7325 0.92 17.7325H2.76V20.2657C2.76 20.7136 2.95386 21.1432 3.29892 21.4599C3.64399 21.7766 4.112 21.9545 4.6 21.9545H21.16C21.648 21.9545 22.116 21.7766 22.4611 21.4599C22.8061 21.1432 23 20.7136 23 20.2657V1.68881C23 1.24091 22.8061 0.811355 22.4611 0.494641C22.116 0.177928 21.648 0 21.16 0ZM21.16 20.2657H4.6V1.68881H21.16V20.2657Z" fill="white"/>
</svg>
