<svg width="23" height="23" viewBox="0 0 23 23" fill="none" xmlns="http://www.w3.org/2000/svg">
<path d="M5.14474 0C5.82035 0 6.48936 0.133073 7.11354 0.39162C7.73773 0.650167 8.30488 1.02913 8.78262 1.50686C9.26035 1.98459 9.63931 2.55174 9.89785 3.17593C10.1564 3.80012 10.2895 4.46912 10.2895 5.14474V10.2895H5.14474C3.78027 10.2895 2.47169 9.74744 1.50686 8.78261C0.542035 7.81779 2.19975e-06 6.5092 2.19975e-06 5.14474C2.19975e-06 3.78027 0.542035 2.47168 1.50686 1.50686C2.47169 0.542033 3.78027 0 5.14474 0ZM7.86842 7.86842V5.14474C7.86842 4.60604 7.70868 4.07945 7.4094 3.63154C7.11012 3.18363 6.68474 2.83453 6.18705 2.62838C5.68936 2.42223 5.14172 2.36829 4.61337 2.47339C4.08503 2.57848 3.59972 2.83789 3.2188 3.2188C2.83789 3.59971 2.57848 4.08503 2.47339 4.61337C2.3683 5.14171 2.42223 5.68936 2.62838 6.18704C2.83453 6.68473 3.18363 7.11011 3.63154 7.4094C4.07945 7.70868 4.60604 7.86842 5.14474 7.86842H7.86842ZM5.14474 12.7105H10.2895V17.8553C10.2895 18.8728 9.98774 19.8675 9.42243 20.7135C8.85712 21.5596 8.05362 22.219 7.11354 22.6084C6.17347 22.9978 5.13903 23.0997 4.14105 22.9011C3.14307 22.7026 2.22636 22.2126 1.50686 21.4931C0.787356 20.7736 0.297368 19.8569 0.098857 18.8589C-0.0996538 17.861 0.00222913 16.8265 0.391622 15.8865C0.781015 14.9464 1.44043 14.1429 2.28648 13.5776C3.13252 13.0123 4.12721 12.7105 5.14474 12.7105ZM5.14474 15.1316C4.60604 15.1316 4.07945 15.2913 3.63154 15.5906C3.18363 15.8899 2.83453 16.3153 2.62838 16.813C2.42223 17.3106 2.3683 17.8583 2.47339 18.3866C2.57848 18.915 2.83789 19.4003 3.2188 19.7812C3.59972 20.1621 4.08503 20.4215 4.61337 20.5266C5.14172 20.6317 5.68936 20.5778 6.18705 20.3716C6.68474 20.1655 7.11012 19.8164 7.4094 19.3685C7.70868 18.9205 7.86842 18.394 7.86842 17.8553V15.1316H5.14474ZM17.8553 0C19.2197 0 20.5283 0.542033 21.4931 1.50686C22.458 2.47168 23 3.78027 23 5.14474C23 6.5092 22.458 7.81779 21.4931 8.78261C20.5283 9.74744 19.2197 10.2895 17.8553 10.2895H12.7105V5.14474C12.7105 3.78027 13.2526 2.47168 14.2174 1.50686C15.1822 0.542033 16.4908 0 17.8553 0ZM17.8553 7.86842C18.394 7.86842 18.9206 7.70868 19.3685 7.4094C19.8164 7.11011 20.1655 6.68473 20.3716 6.18704C20.5778 5.68936 20.6317 5.14171 20.5266 4.61337C20.4215 4.08503 20.1621 3.59971 19.7812 3.2188C19.4003 2.83789 18.915 2.57848 18.3866 2.47339C17.8583 2.36829 17.3106 2.42223 16.813 2.62838C16.3153 2.83453 15.8899 3.18363 15.5906 3.63154C15.2913 4.07945 15.1316 4.60604 15.1316 5.14474V7.86842H17.8553ZM12.7105 12.7105H17.8553C18.8728 12.7105 19.8675 13.0123 20.7135 13.5776C21.5596 14.1429 22.219 14.9464 22.6084 15.8865C22.9978 16.8265 23.0997 17.861 22.9011 18.8589C22.7026 19.8569 22.2126 20.7736 21.4931 21.4931C20.7736 22.2126 19.8569 22.7026 18.859 22.9011C17.861 23.0997 16.8265 22.9978 15.8865 22.6084C14.9464 22.219 14.1429 21.5596 13.5776 20.7135C13.0123 19.8675 12.7105 18.8728 12.7105 17.8553V12.7105ZM15.1316 15.1316V17.8553C15.1316 18.394 15.2913 18.9205 15.5906 19.3685C15.8899 19.8164 16.3153 20.1655 16.813 20.3716C17.3106 20.5778 17.8583 20.6317 18.3866 20.5266C18.915 20.4215 19.4003 20.1621 19.7812 19.7812C20.1621 19.4003 20.4215 18.915 20.5266 18.3866C20.6317 17.8583 20.5778 17.3106 20.3716 16.813C20.1655 16.3153 19.8164 15.8899 19.3685 15.5906C18.9206 15.2913 18.394 15.1316 17.8553 15.1316H15.1316Z" fill="white"/>
</svg>
