<svg width="102" height="112" viewBox="0 0 102 112" fill="none" xmlns="http://www.w3.org/2000/svg">
<path d="M102 93.7674H0V83.3488H5.1V47.0452C5.1 21.0612 25.653 0 51 0C76.347 0 96.9 21.0612 96.9 47.0452V83.3488H102V93.7674ZM15.3 83.3488H86.7V47.0452C86.7 26.8175 70.7166 10.4186 51 10.4186C31.2834 10.4186 15.3 26.8175 15.3 47.0452V83.3488ZM38.25 98.9767H63.75C63.75 102.431 62.4067 105.743 60.0156 108.186C57.6245 110.628 54.3815 112 51 112C47.6185 112 44.3755 110.628 41.9844 108.186C39.5933 105.743 38.25 102.431 38.25 98.9767Z" fill="white"/>
</svg>
