<svg width="23" height="26" viewBox="0 0 23 26" fill="none" xmlns="http://www.w3.org/2000/svg">
<path d="M2.875 23.0286H7.1875V14.1143H15.8125V23.0286H20.125V9.65714L11.5 2.97143L2.875 9.65714V23.0286ZM2.875 26C2.08438 26 1.40731 25.7088 0.843814 25.1264C0.280315 24.544 -0.000955892 23.8447 2.44058e-06 23.0286V9.65714C2.44058e-06 9.18667 0.102065 8.74095 0.30619 8.32C0.510315 7.89905 0.791586 7.55238 1.15 7.28L9.775 0.594286C10.0385 0.396191 10.3141 0.247619 10.6016 0.148571C10.8891 0.0495237 11.1885 0 11.5 0C11.8115 0 12.1109 0.0495237 12.3984 0.148571C12.6859 0.247619 12.9615 0.396191 13.225 0.594286L21.85 7.28C22.2094 7.55238 22.4911 7.89905 22.6952 8.32C22.8994 8.74095 23.001 9.18667 23 9.65714V23.0286C23 23.8457 22.7182 24.5455 22.1547 25.1279C21.5912 25.7103 20.9147 26.001 20.125 26H12.9375V17.0857H10.0625V26H2.875Z" fill="white"/>
</svg>
